<?xml version="1.0" encoding="UTF-8" standalone="no"?>
<svg
        xmlns="http://www.w3.org/2000/svg"
        version="1.2"
        viewBox="0 0 0.90800003 2.5119999"
        id="svg3019">
    <defs
            id="defs3111"/>
    <!-- Page: 1/1 -->
    <text
            transform="translate(-24.0348,-1)"
            font-size="2.2001"
            id="text3021"
            style="font-size:2.20009995px;text-anchor:start;fill:currentColor;font-family:Century Schoolbook L">
        <tspan
                id="tspan3023"/>
    </text>
    <path
            transform="matrix(0.004,0,0,-0.004,0.108,1.86)"
            d="m 27,41 -1,-66 v -11 c 0,-22 1,-44 4,-66 45,38 93,80 93,139 0,33 -14,67 -43,67 C 49,104 28,74 27,41 z m -42,-179 -12,595 c 8,5 18,8 27,8 9,0 19,-3 27,-8 L 20,112 c 25,21 58,34 91,34 52,0 89,-48 89,-102 0,-80 -86,-117 -147,-169 -15,-13 -24,-38 -45,-38 -13,0 -23,11 -23,25 z"
            id="path3089"
            style="fill:currentColor"/>
</svg>
